<?xml version="1.0" standalone="no"?>
<!DOCTYPE svg PUBLIC "-//W3C//DTD SVG 20010904//EN"
 "http://www.w3.org/TR/2001/REC-SVG-20010904/DTD/svg10.dtd">
<svg version="1.0" xmlns="http://www.w3.org/2000/svg"
 width="512.000000pt" height="512.000000pt" viewBox="0 0 512.000000 512.000000"
 preserveAspectRatio="xMidYMid meet">
<metadata>
Created by potrace 1.11, written by Peter Selinger 2001-2013
</metadata>
<g transform="translate(0.000000,512.000000) scale(0.100000,-0.100000)"
fill="#000000" stroke="none">
<path d="M2321 5083 c-1 -21 -3 -51 -5 -68 -2 -16 -7 -64 -11 -105 -3 -41 -8
-76 -10 -78 -2 -2 -49 -19 -104 -38 -55 -18 -135 -51 -176 -74 l-77 -40 -110
90 c-60 50 -113 90 -116 90 -4 0 -80 -73 -170 -163 l-162 -162 93 -115 94
-114 -33 -57 c-36 -64 -87 -191 -104 -256 -6 -24 -16 -44 -23 -44 -7 -1 -21
-3 -32 -4 -18 -2 -80 -8 -199 -21 -21 -2 -41 -6 -45 -9 -3 -4 -6 -110 -6 -236
l0 -229 25 -1 c14 0 34 -2 45 -4 11 -2 54 -7 95 -11 41 -3 82 -8 90 -10 8 -1
20 -3 26 -3 7 -1 24 -40 39 -88 25 -82 54 -147 102 -233 l20 -36 -21 -25 c-11
-14 -37 -45 -57 -70 -20 -24 -53 -64 -74 -88 l-37 -45 166 -164 c154 -154 167
-164 185 -151 11 8 63 49 115 92 l95 78 75 -41 c42 -22 122 -56 178 -74 l103
-34 6 -48 c6 -48 21 -206 22 -231 0 -10 54 -13 233 -13 128 0 235 3 237 8 4 6
7 34 23 212 3 36 9 68 12 71 4 3 45 18 92 32 47 15 125 47 174 72 l88 45 42
-32 c22 -18 50 -41 61 -51 11 -10 44 -37 73 -59 l53 -42 167 167 c97 97 163
171 157 175 -29 20 -183 220 -175 228 27 30 108 217 130 302 6 23 14 42 18 43
11 2 51 6 127 13 112 11 149 16 154 22 2 2 5 108 5 234 1 223 0 230 -19 232
-64 5 -218 20 -235 24 -8 1 -20 3 -26 3 -7 1 -24 40 -39 89 -15 48 -48 128
-74 178 l-46 91 92 114 93 114 -162 162 c-90 90 -165 163 -169 163 -5 0 -85
-63 -181 -142 l-45 -38 -86 45 c-47 24 -126 56 -174 71 -48 15 -91 30 -95 33
-6 6 -13 61 -23 191 -3 30 -7 65 -10 78 l-5 22 -234 0 -233 0 -2 -37z m381
-975 c37 -11 73 -27 79 -34 6 -8 17 -14 23 -14 21 0 114 -99 145 -153 42 -74
61 -156 56 -246 -6 -119 -48 -214 -134 -297 -59 -58 -134 -97 -231 -121 -38
-9 -152 -3 -197 10 -210 63 -339 241 -328 456 5 116 45 208 128 291 123 124
284 162 459 108z"/>
<path d="M2244 1885 c-409 -70 -756 -252 -1049 -549 -152 -154 -274 -329 -365
-523 -37 -78 -114 -288 -126 -346 -29 -134 -46 -252 -51 -349 l-6 -118 1913 0
1913 0 -7 118 c-3 64 -8 128 -10 142 -40 269 -127 509 -265 735 -48 79 -96
150 -111 165 -3 3 -23 28 -44 55 -22 28 -84 94 -137 147 -252 251 -566 423
-917 502 -159 36 -170 37 -397 41 -181 2 -228 -1 -341 -20z"/>
</g>
</svg>
